<?xml version="1.0" encoding="UTF-8" standalone="no"?>
<!-- Generated by Pixelmator Pro 3.6.16 -->

<svg
   width="1080"
   height="1080"
   viewBox="0 0 1080 1080"
   version="1.1"
   id="svg1"
   sodipodi:docname="RailspeederYellow.svg"
   inkscape:export-filename="RailSpeeder.png"
   inkscape:export-xdpi="96"
   inkscape:export-ydpi="96"
   inkscape:version="1.4.2 (ebf0e940d0, 2025-05-08)"
   xmlns:inkscape="http://www.inkscape.org/namespaces/inkscape"
   xmlns:sodipodi="http://sodipodi.sourceforge.net/DTD/sodipodi-0.dtd"
   xmlns="http://www.w3.org/2000/svg"
   xmlns:svg="http://www.w3.org/2000/svg">
  <defs
     id="defs1" />
  <sodipodi:namedview
     id="namedview1"
     pagecolor="#ffffff"
     bordercolor="#000000"
     borderopacity="0.25"
     inkscape:showpageshadow="2"
     inkscape:pageopacity="0.0"
     inkscape:pagecheckerboard="0"
     inkscape:deskcolor="#d1d1d1"
     inkscape:zoom="0.69051077"
     inkscape:cx="422.87537"
     inkscape:cy="559.00648"
     inkscape:window-width="1536"
     inkscape:window-height="891"
     inkscape:window-x="0"
     inkscape:window-y="0"
     inkscape:window-maximized="1"
     inkscape:current-layer="svg1" />
  <g
     id="g57"
     style="fill:#fdc700;fill-opacity:1">
    <path
       id="path56"
       style="fill:#fdc700;fill-opacity:1"
       d="m 126.48828,223.875 -0.084,521.43164 H 238.92188 V 553.36523 h 60.39648 L 399.42578,745.30664 H 529.31836 L 401.9082,533.50781 c 11.03128,-4.96405 22.47535,-11.44372 34.33399,-19.4414 11.85858,-7.99768 22.61523,-17.92652 32.26758,-29.78516 9.65234,-11.85852 17.6492,-25.92224 23.99218,-42.19336 6.34296,-16.27111 9.51367,-34.88635 9.51367,-55.8457 0,-22.61414 -3.72188,-43.71246 -11.16796,-63.29297 -7.4461,-19.5805 -18.61561,-36.67846 -33.50782,-51.29492 -14.89222,-14.61645 -33.50735,-26.19879 -55.8457,-34.74805 -22.33832,-8.54925 -48.12259,-12.82422 -77.35547,-12.82422 z m 112.4336,86.25195 h 57.08593 c 29.23288,0 51.43359,6.75622 66.60157,20.26953 15.16802,13.51324 22.75195,32.67963 22.75195,57.5 0,28.1297 -9.51404,48.26209 -28.54297,60.39649 -19.02897,12.1344 -43.43628,18.20117 -73.2207,18.20117 h -44.67578 z"
       sodipodi:nodetypes="ccccccccssssssscccssssscc" />
    <path
       style="fill:#fdc700;fill-opacity:1"
       d="m 535.5238,744.14868 h 272.30408 v -0.0127 c 86.41937,-1.08582 156.14032,-71.47864 156.14032,-158.1554 0,-86.67682 -69.72095,-157.06958 -156.14032,-158.1554 v -0.0128 H 693.40222 v -0.004 c -25.01123,-0.31024 -45.19092,-20.68183 -45.19092,-45.76667 0,-25.08477 20.17969,-45.45642 45.19092,-45.76666 v -0.004 c 5.66913,-0.008 93.13916,-0.12542 137.60047,4.3e-4 39.55304,0.112 63.8106,-38.62183 77.1026,-70.64355 l 0.38421,0.14728 43.12653,-112.52003 c 9.34839,-2.9851 16.11804,-11.7423 16.11804,-22.08081 0,-12.79907 -10.37567,-23.1748 -23.17481,-23.1748 -12.79907,0 -23.1748,10.37573 -23.1748,23.1748 0,5.77289 2.11084,11.0528 5.60272,15.10999 l -29.73828,77.58929 h -28.31897 l 26.92322,-70.24456 c 10.01526,-2.55902 17.4201,-11.64209 17.4201,-22.45472 0,-12.79907 -10.37567,-23.1748 -23.1748,-23.1748 -12.79907,0 -23.17481,10.37573 -23.17481,23.1748 0,5.32465 1.79572,10.22986 4.81458,14.14307 l -30.10889,78.55621 H 693.40222 l -0.28967,2.5e-4 c -87.2207,0.15637 -157.87848,70.9107 -157.87848,158.16784 0,87.25721 70.65778,158.01154 157.87848,158.16791 l 0.28967,2.5e-4 h 112.39783 v 0.004 c 25.01123,0.31024 45.19092,20.68182 45.19092,45.76666 0,24.9209 -19.91681,45.18994 -44.70124,45.758 -14.26391,-0.11152 -124.19616,-0.92524 -180.78039,0.0123 -39.23804,0.65009 -89.98554,112.39783 -89.98554,112.39783 z"
       id="path54" />
  </g>
  <g
     id="g56">
    <path
       id="path53"
       style="fill:#fdc700;fill-opacity:1;stroke:none;stroke-opacity:1"
       d="M 126.60352 778.93945 L 126.60352 868 L 145.82812 868 L 145.82812 835.20312 L 156.14844 835.20312 L 173.25391 868 L 195.44922 868 L 173.67773 831.81055 C 175.56262 830.96241 177.51866 829.85479 179.54492 828.48828 C 181.57119 827.12176 183.40931 825.42468 185.05859 823.39844 C 186.70786 821.37219 188.0744 818.96966 189.1582 816.18945 C 190.24202 813.40924 190.7832 810.22778 190.7832 806.64648 C 190.7832 802.78247 190.1473 799.17773 188.875 795.83203 C 187.60271 792.48633 185.69499 789.56586 183.15039 787.06836 C 180.60579 784.57086 177.42433 782.59168 173.60742 781.13086 C 169.79049 779.67005 165.38364 778.93945 160.38867 778.93945 L 126.60352 778.93945 z M 145.82812 793.64062 L 155.58398 793.64062 C 160.57895 793.64063 164.37116 794.79651 166.96289 797.10547 C 169.55463 799.41449 170.85156 802.68872 170.85156 806.92969 C 170.85156 811.73621 169.22409 815.17664 165.97266 817.25 C 162.72121 819.32343 158.55211 820.35938 153.46289 820.35938 L 145.82812 820.35938 L 145.82812 793.64062 z " />
    <path
       id="path51"
       style="display:inline;fill:#fdc700;fill-opacity:1;stroke:none;stroke-opacity:1"
       d="M 233.90039 778.93945 L 200.67969 868 L 220.89453 868 L 227.82227 847.50195 L 259.48828 847.50195 L 266.41406 868 L 286.91211 868 L 253.97461 778.93945 L 233.90039 778.93945 z M 243.51367 799.01367 L 243.79492 799.01367 C 244.83162 802.78351 245.91593 806.52929 247.04688 810.25195 C 248.17782 813.97461 249.40323 817.67407 250.72266 821.34961 L 254.82227 833.22461 L 232.20312 833.22461 L 236.30273 821.34961 C 237.62216 817.48554 238.8959 813.6914 240.12109 809.96875 C 241.34626 806.24609 242.47697 802.59497 243.51367 799.01367 z " />
    <path
       style="fill:#fdc700;fill-opacity:1;stroke:none;stroke-opacity:1"
       d="M 319.00263,778.93921 V 868 h -19.36719 v -89.06079 z"
       id="path49" />
    <path
       style="fill:#fdc700;fill-opacity:1;stroke:none;stroke-opacity:1"
       d="m 340.06622,778.93921 h 19.36719 v 73.79321 h 35.90704 V 868 h -55.27423 z"
       id="path48" />
    <path
       style="fill:#fdc700;fill-opacity:1;stroke:none;stroke-opacity:1"
       d="m 436.47806,777.38415 c 5.74893,0 10.83807,0.56543 15.26758,1.69642 4.4295,1.13092 8.38772,2.59167 11.87478,4.38232 l -4.38235,14.41937 c -3.86405,-1.88488 -7.58664,-3.32208 -11.16797,-4.31164 -3.5813,-0.98957 -7.0683,-1.48438 -10.46109,-1.48438 -4.52374,0 -8.0343,0.89533 -10.5318,2.68598 -2.4975,1.79065 -3.74622,4.19384 -3.74622,7.20971 0,3.11005 1.08381,5.46613 3.25144,7.0683 2.16763,1.60211 5.65463,3.15717 10.46112,4.6651 l 8.48196,2.68592 c 7.06836,2.35613 12.60517,5.70178 16.61057,10.03704 4.0054,4.33527 6.00805,9.65998 6.00805,15.97443 0,3.76978 -0.70681,7.30389 -2.12048,10.60242 -1.41367,3.29858 -3.53415,6.17297 -6.36148,8.62341 -2.82736,2.45032 -6.36148,4.38232 -10.60248,5.79602 -4.24103,1.41364 -9.18881,2.12048 -14.84347,2.12048 -10.64966,0 -20.40384,-2.1676 -29.26285,-6.50287 l 4.38235,-14.41937 c 4.05252,1.97913 8.01075,3.51062 11.87479,4.59436 3.86401,1.08386 7.91647,1.62573 12.1575,1.62573 4.99497,0 8.76471,-0.91882 11.3093,-2.75659 2.54461,-1.83776 3.81689,-4.40594 3.81689,-7.70446 0,-1.13099 -0.21203,-2.23835 -0.63614,-3.32215 -0.4241,-1.0838 -1.2016,-2.12048 -2.33255,-3.11004 -1.13092,-0.98957 -2.66238,-1.97913 -4.59439,-2.96869 -1.93204,-0.98957 -4.45303,-1.95557 -7.56311,-2.89801 l -7.49243,-2.54462 c -3.29855,-1.13092 -6.31433,-2.45032 -9.04742,-3.95825 -2.7331,-1.50794 -5.06565,-3.25141 -6.99765,-5.23059 -1.93201,-1.97913 -3.43992,-4.31165 -4.52372,-6.99762 -1.08383,-2.68598 -1.62573,-5.81952 -1.62573,-9.40082 0,-3.86407 0.70685,-7.42175 2.12052,-10.67322 1.41366,-3.2514 3.51058,-6.05517 6.2908,-8.41125 2.78021,-2.35614 6.22009,-4.19385 10.31973,-5.51331 4.09964,-1.31946 8.78827,-1.97913 14.06595,-1.97913 z"
       id="path47" />
    <path
       id="path46"
       style="fill:#fdc700;fill-opacity:1;stroke:none;stroke-opacity:1"
       d="M 484.82617 778.93945 L 484.82617 868 L 504.19336 868 L 504.19336 835.62695 L 514.37109 835.62695 C 519.27179 835.62695 523.88935 835.03747 528.22461 833.85938 C 532.55988 832.68133 536.354 830.89154 539.60547 828.48828 C 542.85693 826.08502 545.4237 823.04467 547.30859 819.36914 C 549.19347 815.6936 550.13672 811.31189 550.13672 806.22266 C 550.13672 801.88739 549.33655 798.04687 547.73438 794.70117 C 546.1322 791.35546 543.84563 788.50458 540.87695 786.14844 C 537.90826 783.79231 534.32666 782.0025 530.13281 780.77734 C 525.9389 779.55212 521.24982 778.93945 516.06641 778.93945 L 484.82617 778.93945 z M 504.19336 793.64062 L 513.66406 793.64062 C 518.47052 793.64062 522.42901 794.72498 525.53906 796.89258 C 528.64911 799.06024 530.20312 802.45232 530.20312 807.07031 C 530.20312 809.70916 529.73353 811.901 528.79102 813.64453 C 527.84864 815.38806 526.55163 816.80097 524.90234 817.88477 C 523.25305 818.96857 521.3222 819.72241 519.10742 820.14648 C 516.8927 820.57061 514.55975 820.7832 512.10938 820.7832 L 504.19336 820.7832 L 504.19336 793.64062 z " />
    <path
       style="fill:#fdc700;fill-opacity:1;stroke:none;stroke-opacity:1"
       d="m 565.40417,778.93921 h 57.96021 v 14.9848 h -38.59302 v 20.35675 h 34.91754 v 14.84351 h -34.91754 v 23.89087 h 39.01715 V 868 h -58.38434 z"
       id="path44" />
    <path
       style="fill:#fdc700;fill-opacity:1;stroke:none;stroke-opacity:1"
       d="m 639.9043,778.93921 h 57.9602 v 14.9848 h -38.59302 v 20.35675 h 34.91749 v 14.84351 h -34.91749 v 23.89087 h 39.01709 V 868 H 639.9043 Z"
       id="path43" />
    <path
       id="path42"
       style="fill:#fdc700;fill-opacity:1;stroke:none;stroke-opacity:1"
       d="M 714.4043,778.93945 V 868 h 27.2832 c 6.78564,0 13.21813,-0.8949 19.29688,-2.68555 6.07878,-1.79065 11.38054,-4.59515 15.90429,-8.41211 4.52374,-3.81689 8.10529,-8.62195 10.74414,-14.41796 2.63886,-5.79608 3.95703,-12.74653 3.95703,-20.85157 0,-7.06836 -1.10754,-13.26501 -3.32226,-18.58984 -2.21478,-5.32483 -5.34784,-9.77808 -9.40039,-13.35938 -4.05249,-3.58129 -8.90589,-6.26794 -14.56055,-8.05859 -5.65466,-1.79065 -11.92089,-2.68555 -18.80078,-2.68555 z m 19.36718,14.98438 h 9.18946 c 8.57623,0 15.4088,2.37933 20.49804,7.13867 5.08923,4.7594 7.63282,11.61706 7.63282,20.57031 0,6.12591 -0.84851,11.18987 -2.54492,15.19531 -1.69642,4.00538 -3.95782,7.21003 -6.78516,9.61329 -2.82733,2.4032 -6.10156,4.10028 -9.82422,5.08984 -3.72265,0.98957 -7.56317,1.48437 -11.52148,1.48437 h -6.64454 z"
       sodipodi:nodetypes="ccsssssssssccssssssscc" />
    <path
       style="fill:#fdc700;fill-opacity:1;stroke:none;stroke-opacity:1"
       d="m 808.27167,778.93921 h 57.9602 v 14.9848 h -38.59301 v 20.35675 h 34.91747 v 14.84351 h -34.91747 v 23.89087 h 39.01708 V 868 h -58.38427 z"
       id="path40" />
    <path
       id="path39"
       style="fill:#fdc700;fill-opacity:1;stroke:none;stroke-opacity:1"
       d="M 882.77148,778.93945 V 868 h 19.22657 v -32.79688 h 10.31836 L 929.42188,868 h 22.19531 l -21.76953,-36.18945 c 1.88489,-0.84814 3.83898,-1.95576 5.86523,-3.32227 2.02624,-1.36652 3.86437,-3.0636 5.51367,-5.08984 1.64923,-2.02625 3.0158,-4.42878 4.09961,-7.20899 1.0838,-2.78021 1.625,-5.96167 1.625,-9.54297 0,-3.86401 -0.63592,-7.46875 -1.9082,-10.81445 -1.27234,-3.3457 -3.18006,-6.26617 -5.72461,-8.76367 -2.54462,-2.4975 -5.72607,-4.47668 -9.54297,-5.9375 -3.81695,-1.46081 -8.22181,-2.19141 -13.2168,-2.19141 z m 19.22657,14.70117 h 9.7539 c 4.995,10e-6 8.78912,1.15589 11.38086,3.46485 2.59173,2.30902 3.88672,5.58325 3.88672,9.82422 0,4.80652 -1.62554,8.24695 -4.87695,10.32031 -3.25146,2.07343 -7.42255,3.10938 -12.51172,3.10938 h -7.63281 z"
       sodipodi:nodetypes="ccccccccssssssssccssssscc" />
  </g>
</svg>
